# This file uses centimeters as units for non-parametric coordinates.

mtllib mmm.mtl
g default
v -0.475528 -0.284119 1.637300
v -0.404509 -0.284119 1.776684
v -0.293893 -0.284119 1.887300
v -0.154509 -0.284119 1.958320
v -0.000000 -0.284119 1.982791
v -0.475528 0.284119 1.637300
v -0.404509 0.284119 1.776684
v -0.293893 0.284119 1.887300
v -0.154509 0.284119 1.958320
v -0.000000 0.284119 1.982791
v -0.951057 0.284119 1.791808
v -0.809017 0.284119 2.070577
v -0.587785 0.284119 2.291809
v -0.309017 0.284119 2.433848
v 0.000000 0.284119 2.482792
v -0.951057 -0.284119 1.791808
v -0.809017 -0.284119 2.070577
v -0.587785 -0.284119 2.291809
v -0.309017 -0.284119 2.433848
v 0.000000 -0.284119 2.482792
v -0.500000 -0.284119 1.482791
v -0.500000 0.284119 1.482791
v -1.000000 0.284119 1.482791
v -1.000000 -0.284119 1.482791
vt 0.550000 1.000000
vt 0.500000 0.500000
vt 0.500000 0.750000
vt 0.550000 0.750000
vt 0.600000 1.000000
vt 0.600000 0.750000
vt 0.650000 1.000000
vt 0.650000 0.750000
vt 0.700000 1.000000
vt 0.700000 0.750000
vt 0.750000 0.500000
vt 0.750000 0.750000
vt 0.500000 0.500000
vt 0.550000 0.500000
vt 0.600000 0.500000
vt 0.650000 0.500000
vt 0.700000 0.500000
vt 0.750000 0.500000
vt 0.500000 0.250000
vt 0.550000 0.250000
vt 0.600000 0.250000
vt 0.650000 0.250000
vt 0.700000 0.250000
vt 0.750000 0.250000
vt 0.550000 0.000000
vt 0.600000 0.000000
vt 0.650000 0.000000
vt 0.700000 0.000000
vn 0.951057 0.000000 -0.309017
vn 0.987688 0.000000 -0.156434
vn 0.987688 0.000000 -0.156434
vn 0.951057 0.000000 -0.309017
vn 0.809017 0.000000 -0.587785
vn 0.809017 0.000000 -0.587785
vn 0.587785 0.000000 -0.809017
vn 0.587785 0.000000 -0.809017
vn 0.309017 0.000000 -0.951057
vn 0.309017 0.000000 -0.951057
vn 0.156435 0.000000 -0.987688
vn 0.156435 0.000000 -0.987688
vn 0.000000 1.000000 0.000000
vn 0.000000 1.000000 0.000000
vn 0.000000 1.000000 0.000000
vn 0.000000 1.000000 -0.000000
vn 0.000000 1.000000 -0.000000
vn 0.000000 1.000000 -0.000000
vn 0.000000 1.000000 -0.000000
vn 0.000000 1.000000 -0.000000
vn 0.000000 1.000000 -0.000000
vn 0.000000 1.000000 -0.000000
vn 0.000000 1.000000 0.000000
vn 0.000000 1.000000 0.000000
vn -0.951057 0.000000 0.309017
vn -0.987688 0.000000 0.156434
vn -0.987688 0.000000 0.156434
vn -0.951057 0.000000 0.309017
vn -0.809017 0.000000 0.587785
vn -0.809017 0.000000 0.587785
vn -0.587786 0.000000 0.809017
vn -0.587786 0.000000 0.809017
vn -0.309017 0.000000 0.951056
vn -0.309017 0.000000 0.951056
vn -0.156435 0.000000 0.987688
vn -0.156435 0.000000 0.987688
vn 0.000000 -1.000000 0.000000
vn 0.000000 -1.000000 0.000000
vn 0.000000 -1.000000 0.000000
vn 0.000000 -1.000000 0.000000
vn 0.000000 -1.000000 0.000000
vn 0.000000 -1.000000 0.000000
vn 0.000000 -1.000000 0.000000
vn 0.000000 -1.000000 0.000000
vn 0.000000 -1.000000 0.000000
vn 0.000000 -1.000000 0.000000
vn 0.000000 -1.000000 0.000000
vn 0.000000 -1.000000 0.000000
vn 0.000000 0.000000 -1.000000
vn 0.000000 0.000000 -1.000000
vn 0.000000 0.000000 -1.000000
vn 0.000000 0.000000 -1.000000
vn 1.000000 0.000000 -0.000000
vn 1.000000 0.000000 -0.000000
vn 1.000000 0.000000 -0.000000
vn 1.000000 0.000000 -0.000000
s 1
g polySurface6
usemtl initialShadingGroup
f 1/1/1 21/2/2 22/3/3 6/4/4
f 2/5/5 1/1/1 6/4/4 7/6/6
f 3/7/7 2/5/5 7/6/6 8/8/8
f 4/9/9 3/7/7 8/8/8 9/10/10
f 5/11/11 4/9/9 9/10/10 10/12/12
s 2
f 6/4/13 22/3/14 23/13/15 11/14/16
f 7/6/17 6/4/13 11/14/16 12/15/18
f 8/8/19 7/6/17 12/15/18 13/16/20
f 9/10/21 8/8/19 13/16/20 14/17/22
f 10/12/23 9/10/21 14/17/22 15/18/24
s 3
f 11/14/25 23/13/26 24/19/27 16/20/28
f 12/15/29 11/14/25 16/20/28 17/21/30
f 13/16/31 12/15/29 17/21/30 18/22/32
f 14/17/33 13/16/31 18/22/32 19/23/34
f 15/18/35 14/17/33 19/23/34 20/24/36
s 4
f 16/20/37 24/19/38 21/2/39 1/25/40
f 17/21/41 16/20/37 1/25/40 2/26/42
f 18/22/43 17/21/41 2/26/42 3/27/44
f 19/23/45 18/22/43 3/27/44 4/28/46
f 20/24/47 19/23/45 4/28/46 5/11/48
s off
f 23/13/49 22/3/50 21/2/51 24/19/52
f 10/12/53 15/18/54 20/24/55 5/11/56
g default
v 0.154509 -0.284119 0.475529
v 0.293893 -0.284119 0.404509
v 0.404509 -0.284119 0.293893
v 0.475529 -0.284119 0.154509
v 0.154509 0.284119 0.475529
v 0.293893 0.284119 0.404509
v 0.404509 0.284119 0.293893
v 0.475529 0.284119 0.154509
v 0.309017 0.284119 0.951057
v 0.587786 0.284119 0.809017
v 0.809018 0.284119 0.587786
v 0.951057 0.284119 0.309017
v 0.309017 -0.284119 0.951057
v 0.587786 -0.284119 0.809017
v 0.809018 -0.284119 0.587786
v 0.951057 -0.284119 0.309017
v 0.000000 -0.284119 0.500000
v 0.000000 0.284119 0.500000
v 0.000000 0.284119 1.000000
v 0.000000 -0.284119 1.000000
v 0.500000 0.284119 -0.000000
v 0.500000 -0.284119 -0.000000
v 1.000000 0.284119 -0.000000
v 1.000000 -0.284119 -0.000000
vt 0.800000 1.000000
vt 0.750000 0.500000
vt 0.750000 0.750000
vt 0.800000 0.750000
vt 0.850000 1.000000
vt 0.850000 0.750000
vt 0.900000 1.000000
vt 0.900000 0.750000
vt 0.950000 1.000000
vt 0.950000 0.750000
vt 1.000000 0.500000
vt 1.000000 0.750000
vt 0.750000 0.500000
vt 0.800000 0.500000
vt 0.850000 0.500000
vt 0.900000 0.500000
vt 0.950000 0.500000
vt 1.000000 0.500000
vt 0.750000 0.250000
vt 0.800000 0.250000
vt 0.850000 0.250000
vt 0.900000 0.250000
vt 0.950000 0.250000
vt 1.000000 0.250000
vt 0.800000 0.000000
vt 0.850000 0.000000
vt 0.900000 0.000000
vt 0.950000 0.000000
vn -0.309017 0.000000 -0.951057
vn -0.156434 0.000000 -0.987688
vn -0.156434 0.000000 -0.987688
vn -0.309017 0.000000 -0.951057
vn -0.587785 0.000000 -0.809017
vn -0.587785 0.000000 -0.809017
vn -0.809017 0.000000 -0.587785
vn -0.809017 0.000000 -0.587785
vn -0.951057 0.000000 -0.309016
vn -0.951057 0.000000 -0.309016
vn -0.987689 0.000000 -0.156432
vn -0.987689 0.000000 -0.156432
vn 0.000000 1.000000 0.000000
vn 0.000000 1.000000 0.000000
vn 0.000000 1.000000 0.000000
vn 0.000000 1.000000 0.000000
vn 0.000000 1.000000 0.000000
vn 0.000000 1.000000 0.000000
vn 0.000000 1.000000 0.000000
vn 0.000000 1.000000 0.000000
vn 0.000000 1.000000 0.000000
vn 0.000000 1.000000 0.000000
vn 0.000000 1.000000 0.000000
vn 0.000000 1.000000 0.000000
vn 0.309017 0.000000 0.951057
vn 0.156434 0.000000 0.987688
vn 0.156434 0.000000 0.987688
vn 0.309017 0.000000 0.951057
vn 0.587785 0.000000 0.809017
vn 0.587785 0.000000 0.809017
vn 0.809017 0.000000 0.587785
vn 0.809017 0.000000 0.587785
vn 0.951057 0.000000 0.309016
vn 0.951057 0.000000 0.309016
vn 0.987689 0.000000 0.156432
vn 0.987689 0.000000 0.156432
vn 0.000000 -1.000000 0.000000
vn 0.000000 -1.000000 0.000000
vn 0.000000 -1.000000 0.000000
vn 0.000000 -1.000000 0.000000
vn 0.000000 -1.000000 0.000000
vn 0.000000 -1.000000 0.000000
vn 0.000000 -1.000000 0.000000
vn 0.000000 -1.000000 0.000000
vn 0.000000 -1.000000 0.000000
vn 0.000000 -1.000000 0.000000
vn 0.000000 -1.000000 0.000000
vn 0.000000 -1.000000 0.000000
vn 0.000000 0.000000 -1.000000
vn 0.000000 0.000000 -1.000000
vn 0.000000 0.000000 -1.000000
vn 0.000000 0.000000 -1.000000
vn -1.000000 0.000000 -0.000000
vn -1.000000 0.000000 -0.000000
vn -1.000000 0.000000 -0.000000
vn -1.000000 0.000000 -0.000000
s 1
g polySurface4
usemtl initialShadingGroup
f 25/29/57 41/30/58 42/31/59 29/32/60
f 26/33/61 25/29/57 29/32/60 30/34/62
f 27/35/63 26/33/61 30/34/62 31/36/64
f 28/37/65 27/35/63 31/36/64 32/38/66
f 46/39/67 28/37/65 32/38/66 45/40/68
s 2
f 29/32/69 42/31/70 43/41/71 33/42/72
f 30/34/73 29/32/69 33/42/72 34/43/74
f 31/36/75 30/34/73 34/43/74 35/44/76
f 32/38/77 31/36/75 35/44/76 36/45/78
f 45/40/79 32/38/77 36/45/78 47/46/80
s 3
f 33/42/81 43/41/82 44/47/83 37/48/84
f 34/43/85 33/42/81 37/48/84 38/49/86
f 35/44/87 34/43/85 38/49/86 39/50/88
f 36/45/89 35/44/87 39/50/88 40/51/90
f 47/46/91 36/45/89 40/51/90 48/52/92
s 4
f 37/48/93 44/47/94 41/30/95 25/53/96
f 38/49/97 37/48/93 25/53/96 26/54/98
f 39/50/99 38/49/97 26/54/98 27/55/100
f 40/51/101 39/50/99 27/55/100 28/56/102
f 48/52/103 40/51/101 28/56/102 46/39/104
s off
f 45/40/105 47/46/106 48/52/107 46/39/108
f 43/41/109 42/31/110 41/30/111 44/47/112
g default
v -0.954265 -0.284119 -0.500000
v -1.108773 -0.284119 -0.475528
v -1.248158 -0.284119 -0.404509
v -1.358773 -0.284119 -0.293893
v -1.429793 -0.284119 -0.154509
v -1.454265 -0.284119 0.000000
v -0.954265 0.284119 -0.500000
v -1.108773 0.284119 -0.475528
v -1.248158 0.284119 -0.404509
v -1.358773 0.284119 -0.293893
v -1.429793 0.284119 -0.154509
v -1.454265 0.284119 0.000000
v -0.954265 0.284119 -1.000000
v -1.263282 0.284119 -0.951057
v -1.542050 0.284119 -0.809017
v -1.763282 0.284119 -0.587785
v -1.905322 0.284119 -0.309017
v -1.954265 0.284119 0.000000
v -0.954265 -0.284119 -1.000000
v -1.263282 -0.284119 -0.951057
v -1.542050 -0.284119 -0.809017
v -1.763282 -0.284119 -0.587785
v -1.905322 -0.284119 -0.309017
v -1.954265 -0.284119 0.000000
vt 0.300000 1.000000
vt 0.250000 0.500000
vt 0.250000 0.750000
vt 0.300000 0.750000
vt 0.350000 1.000000
vt 0.350000 0.750000
vt 0.400000 1.000000
vt 0.400000 0.750000
vt 0.450000 1.000000
vt 0.450000 0.750000
vt 0.500000 0.500000
vt 0.500000 0.750000
vt 0.250000 0.500000
vt 0.300000 0.500000
vt 0.350000 0.500000
vt 0.400000 0.500000
vt 0.450000 0.500000
vt 0.500000 0.500000
vt 0.250000 0.250000
vt 0.300000 0.250000
vt 0.350000 0.250000
vt 0.400000 0.250000
vt 0.450000 0.250000
vt 0.500000 0.250000
vt 0.300000 0.000000
vt 0.350000 0.000000
vt 0.400000 0.000000
vt 0.450000 0.000000
vn 0.309017 0.000000 0.951057
vn 0.156434 0.000000 0.987688
vn 0.156434 0.000000 0.987688
vn 0.309017 0.000000 0.951057
vn 0.587785 0.000000 0.809017
vn 0.587785 0.000000 0.809017
vn 0.809017 0.000000 0.587785
vn 0.809017 0.000000 0.587785
vn 0.951057 0.000000 0.309017
vn 0.951057 0.000000 0.309017
vn 0.987689 0.000000 0.156434
vn 0.987689 0.000000 0.156434
vn 0.000000 1.000000 0.000000
vn 0.000000 1.000000 0.000000
vn 0.000000 1.000000 0.000000
vn 0.000000 1.000000 0.000000
vn 0.000000 1.000000 0.000000
vn 0.000000 1.000000 0.000000
vn 0.000000 1.000000 0.000000
vn 0.000000 1.000000 0.000000
vn 0.000000 1.000000 0.000000
vn 0.000000 1.000000 0.000000
vn 0.000000 1.000000 0.000000
vn 0.000000 1.000000 0.000000
vn -0.309017 0.000000 -0.951057
vn -0.156434 0.000000 -0.987688
vn -0.156434 0.000000 -0.987688
vn -0.309017 0.000000 -0.951057
vn -0.587785 0.000000 -0.809017
vn -0.587785 0.000000 -0.809017
vn -0.809017 0.000000 -0.587785
vn -0.809017 0.000000 -0.587785
vn -0.951057 0.000000 -0.309017
vn -0.951057 0.000000 -0.309017
vn -0.987688 0.000000 -0.156434
vn -0.987688 0.000000 -0.156434
vn 0.000000 -1.000000 0.000000
vn 0.000000 -1.000000 0.000000
vn 0.000000 -1.000000 0.000000
vn 0.000000 -1.000000 0.000000
vn 0.000000 -1.000000 0.000000
vn 0.000000 -1.000000 0.000000
vn 0.000000 -1.000000 0.000000
vn 0.000000 -1.000000 0.000000
vn 0.000000 -1.000000 0.000000
vn 0.000000 -1.000000 0.000000
vn 0.000000 -1.000000 0.000000
vn 0.000000 -1.000000 0.000000
vn 0.000000 0.000000 1.000000
vn 0.000000 0.000000 1.000000
vn 0.000000 0.000000 1.000000
vn 0.000000 0.000000 1.000000
vn 1.000000 0.000000 -0.000000
vn 1.000000 0.000000 -0.000000
vn 1.000000 0.000000 -0.000000
vn 1.000000 0.000000 -0.000000
s 1
g polySurface5
usemtl initialShadingGroup
f 50/57/113 49/58/114 55/59/115 56/60/116
f 51/61/117 50/57/113 56/60/116 57/62/118
f 52/63/119 51/61/117 57/62/118 58/64/120
f 53/65/121 52/63/119 58/64/120 59/66/122
f 54/67/123 53/65/121 59/66/122 60/68/124
s 2
f 56/60/125 55/59/126 61/69/127 62/70/128
f 57/62/129 56/60/125 62/70/128 63/71/130
f 58/64/131 57/62/129 63/71/130 64/72/132
f 59/66/133 58/64/131 64/72/132 65/73/134
f 60/68/135 59/66/133 65/73/134 66/74/136
s 3
f 62/70/137 61/69/138 67/75/139 68/76/140
f 63/71/141 62/70/137 68/76/140 69/77/142
f 64/72/143 63/71/141 69/77/142 70/78/144
f 65/73/145 64/72/143 70/78/144 71/79/146
f 66/74/147 65/73/145 71/79/146 72/80/148
s 4
f 68/76/149 67/75/150 49/58/151 50/81/152
f 69/77/153 68/76/149 50/81/152 51/82/154
f 70/78/155 69/77/153 51/82/154 52/83/156
f 71/79/157 70/78/155 52/83/156 53/84/158
f 72/80/159 71/79/157 53/84/158 54/67/160
s off
f 60/68/161 66/74/162 72/80/163 54/67/164
f 61/69/165 55/59/166 49/58/167 67/75/168
g default
v -0.165568 -0.284119 -0.000000
v -0.190040 -0.284119 -0.154509
v -0.261059 -0.284119 -0.293893
v -0.371675 -0.284119 -0.404509
v -0.511059 -0.284119 -0.475528
v -0.165568 0.284119 -0.000000
v -0.190040 0.284119 -0.154509
v -0.261059 0.284119 -0.293893
v -0.371675 0.284119 -0.404509
v -0.511059 0.284119 -0.475528
v 0.334432 0.284119 -0.000000
v 0.285489 0.284119 -0.309017
v 0.143449 0.284119 -0.587785
v -0.077783 0.284119 -0.809017
v -0.356551 0.284119 -0.951057
v 0.334432 -0.284119 -0.000000
v 0.285489 -0.284119 -0.309017
v 0.143449 -0.284119 -0.587785
v -0.077783 -0.284119 -0.809017
v -0.356551 -0.284119 -0.951057
v -0.665568 0.284119 -0.500000
v -0.665568 -0.284119 -0.500000
v -0.665568 0.284119 -1.000000
v -0.665568 -0.284119 -1.000000
vt 0.050000 1.000000
vt 0.000000 0.500000
vt 0.000000 0.750000
vt 0.050000 0.750000
vt 0.100000 1.000000
vt 0.100000 0.750000
vt 0.150000 1.000000
vt 0.150000 0.750000
vt 0.200000 1.000000
vt 0.200000 0.750000
vt 0.250000 0.500000
vt 0.250000 0.750000
vt 0.000000 0.500000
vt 0.050000 0.500000
vt 0.100000 0.500000
vt 0.150000 0.500000
vt 0.200000 0.500000
vt 0.250000 0.500000
vt 0.000000 0.250000
vt 0.050000 0.250000
vt 0.100000 0.250000
vt 0.150000 0.250000
vt 0.200000 0.250000
vt 0.250000 0.250000
vt 0.050000 0.000000
vt 0.100000 0.000000
vt 0.150000 0.000000
vt 0.200000 0.000000
vn -0.951057 0.000000 0.309017
vn -0.987688 0.000000 0.156434
vn -0.987688 0.000000 0.156434
vn -0.951057 0.000000 0.309017
vn -0.809017 0.000000 0.587785
vn -0.809017 0.000000 0.587785
vn -0.587785 0.000000 0.809017
vn -0.587785 0.000000 0.809017
vn -0.309017 0.000000 0.951057
vn -0.309017 0.000000 0.951057
vn -0.156435 0.000000 0.987688
vn -0.156435 0.000000 0.987688
vn 0.000000 1.000000 0.000000
vn 0.000000 1.000000 -0.000000
vn 0.000000 1.000000 -0.000000
vn 0.000000 1.000000 0.000000
vn 0.000000 1.000000 0.000000
vn 0.000000 1.000000 0.000000
vn 0.000000 1.000000 0.000000
vn 0.000000 1.000000 0.000000
vn 0.000000 1.000000 0.000000
vn 0.000000 1.000000 0.000000
vn 0.000000 1.000000 0.000000
vn 0.000000 1.000000 0.000000
vn 0.951057 0.000000 -0.309017
vn 0.987688 0.000000 -0.156434
vn 0.987688 0.000000 -0.156434
vn 0.951057 0.000000 -0.309017
vn 0.809017 0.000000 -0.587785
vn 0.809017 0.000000 -0.587785
vn 0.587785 0.000000 -0.809017
vn 0.587785 0.000000 -0.809017
vn 0.309017 0.000000 -0.951057
vn 0.309017 0.000000 -0.951057
vn 0.156435 0.000000 -0.987688
vn 0.156435 0.000000 -0.987688
vn 0.000000 -1.000000 0.000000
vn 0.000000 -1.000000 0.000000
vn 0.000000 -1.000000 0.000000
vn 0.000000 -1.000000 0.000000
vn 0.000000 -1.000000 0.000000
vn 0.000000 -1.000000 0.000000
vn 0.000000 -1.000000 0.000000
vn 0.000000 -1.000000 0.000000
vn 0.000000 -1.000000 0.000000
vn 0.000000 -1.000000 0.000000
vn 0.000000 -1.000000 0.000000
vn 0.000000 -1.000000 0.000000
vn -1.000000 0.000000 0.000000
vn -1.000000 0.000000 0.000000
vn -1.000000 0.000000 0.000000
vn -1.000000 0.000000 0.000000
vn 0.000000 0.000000 1.000000
vn 0.000000 0.000000 1.000000
vn 0.000000 0.000000 1.000000
vn 0.000000 0.000000 1.000000
s 1
g polySurface3
usemtl initialShadingGroup
f 74/85/169 73/86/170 78/87/171 79/88/172
f 75/89/173 74/85/169 79/88/172 80/90/174
f 76/91/175 75/89/173 80/90/174 81/92/176
f 77/93/177 76/91/175 81/92/176 82/94/178
f 94/95/179 77/93/177 82/94/178 93/96/180
s 2
f 79/88/181 78/87/182 83/97/183 84/98/184
f 80/90/185 79/88/181 84/98/184 85/99/186
f 81/92/187 80/90/185 85/99/186 86/100/188
f 82/94/189 81/92/187 86/100/188 87/101/190
f 93/96/191 82/94/189 87/101/190 95/102/192
s 3
f 84/98/193 83/97/194 88/103/195 89/104/196
f 85/99/197 84/98/193 89/104/196 90/105/198
f 86/100/199 85/99/197 90/105/198 91/106/200
f 87/101/201 86/100/199 91/106/200 92/107/202
f 95/102/203 87/101/201 92/107/202 96/108/204
s 4
f 89/104/205 88/103/206 73/86/207 74/109/208
f 90/105/209 89/104/205 74/109/208 75/110/210
f 91/106/211 90/105/209 75/110/210 76/111/212
f 92/107/213 91/106/211 76/111/212 77/112/214
f 96/108/215 92/107/213 77/112/214 94/95/216
s off
f 93/96/217 95/102/218 96/108/219 94/95/220
f 83/97/221 78/87/222 73/86/223 88/103/224
